<?xml version="1.0" encoding="UTF-8"?>
<svg xmlns="http://www.w3.org/2000/svg" xmlns:xlink="http://www.w3.org/1999/xlink" width="32px" height="32px" viewBox="0 0 32 32" version="1.1">
<defs>
<clipPath id="clip1">
  <path d="M 9.40625 12.859375 L 22.566406 12.859375 L 22.566406 19.148438 L 9.40625 19.148438 Z M 9.40625 12.859375 "/>
</clipPath>
<clipPath id="clip2">
  <path d="M 13 9.355469 L 26 9.355469 L 26 22.652344 L 13 22.652344 Z M 13 9.355469 "/>
</clipPath>
<clipPath id="clip3">
  <path d="M 12 9.355469 L 26 9.355469 L 26 22.652344 L 12 22.652344 Z M 12 9.355469 "/>
</clipPath>
</defs>
<g id="surface1">
<rect x="0" y="0" width="32" height="32" style="fill:rgb(100%,100%,100%);fill-opacity:1;stroke:none;"/>
<g clip-path="url(#clip1)" clip-rule="nonzero">
<path style=" stroke:none;fill-rule:nonzero;fill:rgb(98.039216%,30.980392%,3.137255%);fill-opacity:1;" d="M 14.230469 19.148438 L 13.390625 19.148438 L 13.390625 16.796875 L 10.667969 16.796875 L 9.410156 15.535156 L 9.410156 14.117188 L 10.667969 12.859375 L 11.378906 12.859375 L 11.378906 15.09375 L 14.269531 15.09375 L 15.488281 16.355469 L 15.488281 17.894531 Z M 13.390625 13.996094 L 11.710938 13.996094 L 11.710938 12.859375 L 14.226562 12.859375 L 15.316406 13.957031 L 15.316406 14.625 L 13.390625 14.625 Z M 9.410156 17.894531 L 9.410156 17.261719 L 11.503906 17.261719 L 11.503906 18.011719 L 13.058594 18.011719 L 13.058594 19.148438 L 10.464844 19.148438 Z M 17.960938 12.859375 L 20.136719 19.148438 L 18.097656 19.148438 L 15.824219 12.859375 Z M 19.449219 16.195312 L 20.460938 12.859375 L 22.566406 12.859375 L 20.390625 18.960938 Z M 19.449219 16.195312 "/>
</g>
<g clip-path="url(#clip2)" clip-rule="nonzero">
<path style=" stroke:none;fill-rule:nonzero;fill:rgb(86.666667%,82.352941%,77.647059%);fill-opacity:1;" d="M 18.574219 9.351562 C 22.25 9.351562 25.230469 12.332031 25.230469 16.003906 C 25.230469 19.679688 22.25 22.660156 18.574219 22.660156 C 16.351562 22.660156 14.378906 21.566406 13.171875 19.890625 L 13.527344 19.890625 C 14.691406 21.402344 16.519531 22.375 18.574219 22.375 C 22.09375 22.375 24.945312 19.523438 24.945312 16.003906 C 24.945312 12.488281 22.09375 9.632812 18.574219 9.632812 C 16.519531 9.632812 14.691406 10.609375 13.527344 12.117188 L 13.171875 12.117188 C 14.378906 10.441406 16.351562 9.351562 18.574219 9.351562 Z M 18.574219 9.351562 "/>
</g>
<g clip-path="url(#clip3)" clip-rule="nonzero">
<path style="fill:none;stroke-width:1;stroke-linecap:butt;stroke-linejoin:miter;stroke:rgb(100%,100%,100%);stroke-opacity:1;stroke-miterlimit:4;" d="M 245.815064 0.00838434 C 314.090981 0.00838434 369.451794 55.369197 369.451794 123.572557 C 369.451794 191.848474 314.090981 247.209286 245.815064 247.209286 C 204.530265 247.209286 167.889098 226.893391 145.469057 195.766539 L 152.071723 195.766539 C 173.693639 223.846007 207.650205 241.912642 245.815064 241.912642 C 311.18871 241.912642 364.15515 188.946203 364.15515 123.572557 C 364.15515 58.271467 311.18871 5.232471 245.815064 5.232471 C 207.650205 5.232471 173.693639 23.371663 152.071723 51.378575 L 145.469057 51.378575 C 167.889098 20.251722 204.530265 0.00838434 245.815064 0.00838434 Z M 245.815064 0.00838434 " transform="matrix(0.0538372,0,0,0.0538372,5.340235,9.351111)"/>
</g>
</g>
</svg>
