<svg xmlns="http://www.w3.org/2000/svg" version="1.1" xmlns:xlink="http://www.w3.org/1999/xlink" xmlns:svgjs="http://svgjs.dev/svgjs" width="1500" height="1500" viewBox="0 0 1500 1500"><rect width="1500" height="1500" fill="#ffffff"></rect><g transform="matrix(0.6666666666666666,0,0,0.6666666666666666,249.39393939393938,438.5856950067477)"><svg viewBox="0 0 396 247" data-background-color="#ffffff" preserveAspectRatio="xMidYMid meet" height="935" width="1500" xmlns="http://www.w3.org/2000/svg" xmlns:xlink="http://www.w3.org/1999/xlink"><g id="tight-bounds" transform="matrix(1,0,0,1,0.2400000000000091,-0.09999999999999432)"><svg viewBox="0 0 395.52 247.2" height="247.2" width="395.52"><g><svg></svg></g><g><svg viewBox="0 0 395.52 247.2" height="247.2" width="395.52"><g transform="matrix(1,0,0,1,75.54432,65.19877300684192)"><svg viewBox="0 0 244.43135999999998 116.80245398631617" height="116.80245398631617" width="244.43135999999998"><g><svg viewBox="0 0 244.43135999999998 116.80245398631617" height="116.80245398631617" width="244.43135999999998"><g><svg viewBox="0 0 244.43135999999998 116.80245398631617" height="116.80245398631617" width="244.43135999999998"><g><svg viewBox="0 0 244.43135999999998 116.80245398631617" height="116.80245398631617" width="244.43135999999998"><g id="textblocktransform"><svg viewBox="0 0 244.43135999999998 116.80245398631617" height="116.80245398631617" width="244.43135999999998" id="textblock"><g><svg viewBox="0 0 244.43135999999998 116.80245398631617" height="116.80245398631617" width="244.43135999999998"><g transform="matrix(1,0,0,1,0,0)"><svg width="244.43135999999998" viewBox="2.37 -32.4 67.78999999999999 32.4" height="116.80245398631617" data-palette-color="#fa4f08"><path d="M27.22 0L22.88 0 22.88-12.13 8.86-12.13 2.37-18.63 2.37-25.93 8.86-32.4 12.52-32.4 12.52-20.9 27.42-20.9 33.69-14.4 33.69-6.47 27.22 0ZM22.88-26.56L14.23-26.56 14.23-32.4 27.2-32.4 32.81-26.76 32.81-23.32 22.88-23.32 22.88-26.56ZM2.37-6.47L2.37-9.72 13.16-9.72 13.16-5.86 21.17-5.86 21.17 0 7.81 0 2.37-6.47ZM46.43-32.4L57.64 0 47.14 0 35.42-32.4 46.43-32.4ZM54.1-15.23L59.32-32.4 70.16-32.4 58.96-0.98 54.1-15.23Z" opacity="1" transform="matrix(1,0,0,1,0,0)" fill="#fa4f08" class="wordmark-text-0" data-fill-palette-color="primary" id="text-0"></path></svg></g></svg></g></svg></g></svg></g></svg></g></svg></g></svg></g><g><path d="M245.816 0c68.262 0 123.6 55.338 123.6 123.6 0 68.262-55.338 123.6-123.6 123.6-41.316 0-77.897-20.272-100.34-51.412l6.569 0c21.637 28.065 55.593 46.145 93.771 46.145 65.354 0 118.333-52.98 118.333-118.333 0-65.354-52.98-118.333-118.333-118.333-38.178 0-72.133 18.08-93.771 46.145l-6.569 0c22.443-31.14 59.024-51.412 100.34-51.412z" fill="#ddd2c6" stroke="transparent" data-fill-palette-color="tertiary"></path></g></svg></g><defs></defs></svg><rect width="395.52" height="247.2" fill="none" stroke="none" visibility="hidden"></rect></g></svg></g></svg>