<?xml version="1.0" encoding="utf-8"?>
<!-- Svg Vector Icons : http://www.onlinewebfonts.com/icon -->
<!DOCTYPE svg PUBLIC "-//W3C//DTD SVG 1.1//EN" "http://www.w3.org/Graphics/SVG/1.1/DTD/svg11.dtd">
<svg version="1.1" xmlns="http://www.w3.org/2000/svg" xmlns:xlink="http://www.w3.org/1999/xlink" x="0px" y="0px" viewBox="0 0 1000 1000" enable-background="new 0 0 1000 1000" xml:space="preserve">
<metadata> Svg Vector Icons : http://www.onlinewebfonts.com/icon </metadata>
<g><g transform="translate(0.000000,511.000000) scale(0.100000,-0.100000)"><path d="M8398.7,2904.9C7230.6,2716.1,7184,2705,7170.6,2591.7c-8.9-75.5,64.4-157.7,366.4-410.8c139.9-115.5,250.9-217.6,246.5-228.7c-4.5-11.1-395.3-479.7-870.6-1041.5L6049.1-111l-79.9,40c-44.4,22.2-648.5,308.7-1345.8,637.4l-1265.9,597.4l-211-2.2c-233.2-2.2-346.4-37.8-488.6-155.5c-62.2-53.3-2016.5-2211.9-2360.7-2607.2c-279.8-322-259.8-763.9,46.6-1048.2c295.4-275.4,721.8-275.4,1010.5,0c48.9,46.7,506.3,548.6,1021.6,1121.5c513,570.8,941.6,1037.1,948.3,1037.1c6.7,0,577.4-266.5,1268.1-590.7c688.5-324.3,1299.2-608.5,1354.7-630.7c273.2-108.8,575.2-62.2,799.5,126.6c40,33.3,537.4,610.7,1103.7,1283.6C8416.5,368.7,8898.4,937.2,8918.4,957.2c35.5,37.8,57.7,22.2,397.5-259.8c197.7-164.3,386.4-306.5,419.7-313.1c46.6-13.3,68.8-2.2,111,44.4l53.3,62.2l-13.3,457.5c-8.9,253.2-22.2,790.6-31.1,1192.6c-13.3,493-26.6,750.6-44.4,788.4c-37.7,80-126.6,137.7-219.9,146.6C9546.9,3078.1,9009.5,3002.6,8398.7,2904.9z"/></g></g>
</svg>