<?xml version="1.0" encoding="utf-8"?>
<!-- Svg Vector Icons : http://www.onlinewebfonts.com/icon -->
<!DOCTYPE svg PUBLIC "-//W3C//DTD SVG 1.1//EN" "http://www.w3.org/Graphics/SVG/1.1/DTD/svg11.dtd">
<svg version="1.1" xmlns="http://www.w3.org/2000/svg" xmlns:xlink="http://www.w3.org/1999/xlink" x="0px" y="0px" viewBox="0 0 1000 1000" enable-background="new 0 0 1000 1000" xml:space="preserve">
<metadata> Svg Vector Icons : http://www.onlinewebfonts.com/icon </metadata>
<g><path d="M695.1,270c0,10.5-9.9,18.9-22.2,18.9H331.1c-12.3,0-22.2-8.5-22.2-18.9l0,0c0-10.4,10-18.9,22.2-18.9h341.8C685.2,251.1,695.1,259.6,695.1,270L695.1,270L695.1,270z M656.5,240.2L344,241.1c-15.3,0-80-73.8-80-130.4c0-68.3,58.5-62.4,103.3-62.8c38.4-0.4,78.5-54,107.6-33.2c40.6,29.2,50,97.9,60.5,97.9c17.9,0-0.5-89.5,88.6-89.5c88.9,0,124.4,20.2,112.6,84C724.2,174.6,671,238.5,656.5,240.2L656.5,240.2z M691.5,322H315.8C193.9,396.3,90.3,541.2,90.3,731.9C90.3,942.1,283.8,990,504.8,990c220.9,0,404.9-50.3,404.9-260.6C909.6,552.8,820.2,400.1,691.5,322L691.5,322z M525.6,833.9l-8,1.3v7.5v57.1h-45.8v-52.7v-8.5l-9.5-0.3c-41.2-1.7-84.4-10.8-113-23.5l16.8-58c24.2,10.8,63.9,24.1,110.3,24.1c0.7,0,1.7,0,2.5,0c0.5,0,1.2,0,1.7,0c49.3,0,80.1-18.8,80.1-49c0-32.8-33.7-49.6-84.2-64.7c-87.3-26.1-124.5-59-124.5-110.2c0-54.1,43.1-93.9,115.3-106.5l8-1.4V442v-52.6H521v48.1v8.5l9.2,0.4c35.6,1.4,65.5,7.1,91.3,17.5l-14.8,53c-20.4-7.4-50-15.8-90.3-15.8c-0.9,0-1.7,0-2.7,0c-0.9,0-1.9,0-2.8,0c-65.4,0-70.4,34.6-70.4,45c0,27.6,29.4,42.7,91.1,64c79.3,25.6,111.6,58.2,111.6,112.6C643.3,779.9,598.2,822.4,525.6,833.9L525.6,833.9z"/></g>
</svg>